<?xml version="1.0" encoding="UTF-8"?>
<svg version="1.1" xmlns="http://www.w3.org/2000/svg" width="1024" height="1024">
<path d="M0 0 C337.92 0 675.84 0 1024 0 C1024 337.92 1024 675.84 1024 1024 C686.08 1024 348.16 1024 0 1024 C0 686.08 0 348.16 0 0 Z " fill="#0F0F0E" transform="translate(0,0)"/>
<path d="M0 0 C328.35 0 656.7 0 995 0 C993.48 4.56 992.17 7.71 989.78 11.73 C989.16 12.78 988.54 13.83 987.9 14.91 C987.25 15.99 986.6 17.07 985.94 18.19 C984.65 20.35 983.37 22.51 982.09 24.67 C981.24 26.1 981.24 26.1 980.37 27.55 C978.89 30.02 978.89 30.02 978 33 C977.34 33 976.68 33 976 33 C975.87 33.59 975.73 34.17 975.6 34.78 C974.67 38.24 973.1 41.43 971.62 44.69 C967.88 53.14 964.99 60.77 964 70 C963.67 70.33 963.34 70.66 963 71 C961.28 79.07 960.69 87.21 960.34 95.44 C960.1 100.8 960.1 100.8 959 103 C958.92 104.35 958.86 105.71 958.81 107.06 C957.1 125.79 946.4 142.92 932.47 155 C916.1 168.26 895.45 170.65 875 169 C874.67 168.67 874.34 168.34 874 168 C871.31 167.53 868.63 167.1 865.94 166.69 C859.98 165.74 854.15 164.63 848.31 163.12 C846.99 162.79 845.68 162.45 844.36 162.12 C842.06 161.53 839.76 160.94 837.47 160.33 C814.87 154.48 789.43 151.86 768.21 163.54 C754.07 172.09 746.24 183.92 740 199 C739.71 199.68 739.43 200.35 739.13 201.05 C737.62 204.81 736.63 208.54 735.75 212.5 C731.3 230.85 721.28 249.32 704.88 259.38 C703.26 260.27 701.63 261.14 700 262 C699.33 262.38 698.67 262.76 697.98 263.14 C689.6 267.7 680.95 269.11 671.56 269.94 C647.85 272.06 623.95 277.27 606 294 C607.6 297.91 610.3 300.62 613.19 303.62 C631.37 323.08 641.79 347.91 647.12 373.75 C647.28 374.51 647.44 375.27 647.61 376.06 C651.01 393.41 651.25 410.42 651.12 428.06 C651.11 430.49 651.11 432.92 651.1 435.35 C651.08 441.23 651.04 447.12 651 453 C645.96 451.43 641.2 449.42 636.38 447.3 C635.55 446.94 634.73 446.58 633.88 446.21 C631.25 445.06 628.63 443.9 626 442.75 C622.56 441.24 619.13 439.74 615.69 438.23 C614.85 437.87 614.02 437.5 613.16 437.13 C604.12 433.17 595.06 429.26 585.94 425.5 C584.98 425.08 584.02 424.67 583.04 424.24 C579.95 422.93 579.95 422.93 576.43 421.88 C572.77 420.59 570.02 419.45 567 417 C565.25 412.06 565.22 407.2 565 402 C562.36 385.1 553.82 370.23 540.84 359.07 C523.54 346.46 503.82 344.25 483 346 C476.96 347.09 471.5 349.33 466 352 C464.83 352.54 463.67 353.08 462.46 353.64 C447.89 360.93 437.27 371.25 429.75 385.62 C429.43 386.21 429.12 386.8 428.79 387.41 C421.31 402.51 421.46 418.01 421.69 434.44 C421.71 436.82 421.72 439.19 421.74 441.57 C421.79 447.33 421.85 453.09 421.93 458.85 C422 464.52 422.04 470.2 422.08 475.88 C422.13 482.49 422.2 489.09 422.27 495.7 C422.3 498.54 422.32 501.38 422.35 504.23 C422.57 532.65 425.29 558.96 446.18 580.31 C461.59 595.03 481.66 600.69 502.51 600.54 C526.44 599.81 548.51 592.43 569.34 581.06 C575.86 577.51 582.47 574.13 589.08 570.74 C592.68 568.89 596.27 567.04 599.86 565.2 C600.56 564.84 601.26 564.48 601.98 564.11 C608.15 560.93 614.29 557.72 620.44 554.5 C627.37 550.87 634.32 547.28 641.31 543.75 C642.07 543.37 642.82 542.98 643.6 542.59 C648.76 540 648.76 540 651 540 C651.46 548.59 649.77 556.65 648 565 C647.8 566 647.59 567 647.38 568.03 C639.66 602.18 618.46 631.71 589.02 650.57 C583.2 654.18 577.07 657.17 570.89 660.09 C568.91 661.04 566.97 662.06 565.02 663.07 C561.16 665.01 557.28 666.33 553.12 667.5 C552.4 667.71 551.68 667.91 550.94 668.13 C545.49 669.66 540.01 671 534.5 672.25 C533.43 672.49 533.43 672.49 532.33 672.74 C524.27 674.5 516.27 675.16 508.04 675.2 C507.21 675.21 506.38 675.21 505.52 675.22 C503.77 675.23 502.02 675.24 500.27 675.24 C497.67 675.25 495.06 675.28 492.45 675.31 C476.34 675.42 460.94 673.29 445.44 668.81 C444.38 668.51 443.33 668.21 442.24 667.9 C403.25 656.35 370.6 630.47 350.92 594.86 C344.3 582.48 340.34 570.1 337.25 556.44 C337.04 555.52 336.83 554.59 336.61 553.65 C332.81 535.93 333.69 517.4 333.45 499.38 C333.4 495.72 333.34 492.07 333.28 488.42 C333.26 486.72 333.26 486.72 333.24 484.99 C333.22 483.95 333.21 482.92 333.19 481.85 C333.17 480.48 333.17 480.48 333.15 479.08 C333.23 477.01 333.23 477.01 332 476 C303.14 473.97 273.34 477.91 250.12 496.44 C248.4 497.94 246.69 499.46 245 501 C243.87 502.01 243.87 502.01 242.71 503.04 C234.62 510.66 228.39 519.91 222.24 529.1 C211.05 545.82 198.74 560.88 178.31 565.81 C166.13 568.09 154.69 566.93 142.5 565.5 C121.75 563.08 103.64 562.48 86.41 576.04 C74.1 586.52 67.26 600.89 60.5 615.31 C51.82 632.79 36.63 646.39 18.38 653 C16.26 653.7 14.14 654.37 12 655 C11.37 655.21 10.75 655.41 10.1 655.62 C6.78 656.22 3.37 656 0 656 C0 439.52 0 223.04 0 0 Z " fill="#525151" transform="translate(0,0)"/>
<path d="M0 0 C225.72 0 451.44 0 684 0 C684 3 684 3 682.35 4.77 C681.59 5.44 680.84 6.12 680.06 6.81 C665.27 21.12 659.51 40.42 655.23 59.98 C651.61 76.28 645.69 90.36 631.56 100.38 C623.54 105.3 615.29 107.79 606 109 C605.32 109.09 604.63 109.18 603.93 109.27 C595.29 110.29 586.67 110.02 577.99 109.87 C576.79 109.86 575.59 109.85 574.36 109.84 C573.28 109.82 572.2 109.81 571.09 109.79 C567.76 110.02 565.12 110.85 562 112 C560.28 112.3 558.55 112.57 556.81 112.81 C547.12 114.51 538.82 119.17 531 125 C530.33 125.49 529.67 125.98 528.98 126.48 C515.03 137.62 510.23 153.67 505.11 170.03 C498.78 190.04 491.14 207.22 472 218 C448.58 230.06 426.21 224.74 402.28 217.3 C379.09 210.1 354.15 204.74 331.38 216.12 C325.13 219.67 320.02 223.9 315 229 C314.45 229.55 313.9 230.1 313.33 230.67 C304.81 239.9 299.7 251.04 295.75 262.79 C295.21 264.37 294.66 265.93 294.09 267.5 C290.5 277.65 288.36 288.13 286.08 298.64 C284.07 307.8 281.9 316.83 278.95 325.74 C278.6 326.81 278.6 326.81 278.24 327.91 C272.04 345.99 260.49 363.05 243.12 371.88 C226.43 379.78 205.56 381.14 188 375 C187.1 374.69 186.2 374.38 185.28 374.06 C174.49 370.13 164.55 364.71 154.45 359.3 C143.25 353.3 132.19 348.58 120 345 C118.23 344.48 118.23 344.48 116.43 343.95 C100.42 339.46 84.87 341.35 70.12 348.81 C57.93 355.92 50.93 367.67 47 381 C44.56 390.55 43.5 399.8 43.06 409.62 C41.64 434.77 37.41 459.05 18.32 477.14 C6.01 487 6.01 487 0 487 C0 326.29 0 165.58 0 0 Z " fill="#9D9D9D" transform="translate(0,0)"/>
<path d="M0 0 C1.13 -0 1.13 -0 2.29 -0 C15.15 0.03 27.31 1.23 39.81 4.38 C40.48 4.53 41.15 4.68 41.83 4.84 C60.19 9.12 78.69 18.96 92.81 31.38 C93.34 31.82 93.86 32.27 94.41 32.74 C119.09 53.94 133.42 82.52 139.94 114.12 C140.1 114.89 140.26 115.65 140.42 116.43 C143.82 133.79 144.07 150.8 143.94 168.44 C143.93 170.87 143.92 173.29 143.91 175.72 C143.89 181.61 143.86 187.49 143.81 193.38 C138.77 191.8 134.01 189.8 129.19 187.67 C128.36 187.31 127.54 186.95 126.69 186.58 C124.06 185.43 121.44 184.28 118.81 183.12 C115.38 181.62 111.94 180.11 108.5 178.61 C107.67 178.24 106.83 177.88 105.98 177.5 C96.93 173.55 87.88 169.63 78.75 165.88 C77.79 165.46 76.83 165.04 75.85 164.62 C72.76 163.3 72.76 163.3 69.25 162.26 C65.58 160.96 62.83 159.83 59.81 157.38 C58.06 152.43 58.03 147.58 57.81 142.38 C55.17 125.48 46.63 110.6 33.65 99.45 C16.36 86.84 -3.36 84.62 -24.19 86.38 C-30.23 87.47 -35.69 89.71 -41.19 92.38 C-42.35 92.92 -43.52 93.46 -44.72 94.02 C-59.29 101.31 -69.92 111.62 -77.44 126 C-77.75 126.59 -78.07 127.18 -78.4 127.79 C-85.87 142.89 -85.73 158.38 -85.5 174.81 C-85.48 177.19 -85.46 179.57 -85.45 181.95 C-85.4 187.71 -85.33 193.46 -85.26 199.22 C-85.19 204.9 -85.14 210.58 -85.1 216.25 C-85.06 222.86 -84.99 229.47 -84.92 236.08 C-84.89 238.92 -84.86 241.76 -84.84 244.6 C-84.62 273.02 -81.9 299.33 -61 320.68 C-45.6 335.4 -25.53 341.06 -4.68 340.92 C19.25 340.18 41.32 332.81 62.15 321.44 C68.67 317.88 75.29 314.5 81.9 311.11 C85.49 309.27 89.08 307.42 92.68 305.57 C93.72 305.03 93.72 305.03 94.79 304.48 C100.96 301.3 107.11 298.09 113.25 294.88 C120.19 291.25 127.14 287.65 134.12 284.12 C134.88 283.74 135.63 283.36 136.41 282.96 C141.58 280.38 141.58 280.38 143.81 280.38 C144.27 288.96 142.59 297.02 140.81 305.38 C140.51 306.88 140.51 306.88 140.19 308.41 C132.47 342.55 111.27 372.08 81.83 390.95 C76.01 394.55 69.89 397.55 63.7 400.47 C61.72 401.42 59.78 402.43 57.83 403.45 C53.97 405.38 50.09 406.71 45.94 407.88 C45.21 408.08 44.49 408.29 43.75 408.5 C38.31 410.03 32.83 411.38 27.31 412.62 C26.6 412.79 25.88 412.95 25.14 413.12 C17.08 414.87 9.09 415.53 0.85 415.58 C0.02 415.58 -0.81 415.59 -1.66 415.6 C-3.41 415.6 -5.16 415.61 -6.91 415.62 C-9.52 415.62 -12.13 415.66 -14.74 415.69 C-30.85 415.79 -46.25 413.66 -61.75 409.19 C-62.8 408.89 -63.86 408.58 -64.95 408.27 C-103.94 396.72 -136.59 370.84 -156.27 335.24 C-162.89 322.86 -166.84 310.48 -169.94 296.81 C-170.15 295.89 -170.36 294.97 -170.58 294.02 C-173.83 278.86 -173.48 263.18 -173.75 247.75 C-173.77 246.61 -173.79 245.47 -173.81 244.29 C-174.15 224.76 -174.35 205.21 -174.42 185.67 C-174.43 182.71 -174.45 179.75 -174.47 176.79 C-174.62 157.55 -174.39 138.83 -168.5 120.31 C-168.25 119.49 -167.99 118.68 -167.73 117.83 C-159.75 93.02 -146.1 72.15 -128.19 53.38 C-127.46 52.59 -126.73 51.81 -125.98 51.01 C-103.91 27.99 -73.99 12.95 -43.56 4.56 C-42.87 4.37 -42.18 4.17 -41.47 3.97 C-27.98 0.47 -13.87 -0.03 0 0 Z " fill="#EFEEEE" transform="translate(507.1875,259.625)"/>
<path d="M0 0 C0.33 0 0.66 0 1 0 C1.73 9.92 2.1 19.82 2.25 29.77 C2.26 30.91 2.28 32.04 2.3 33.21 C2.36 37.93 2.42 42.64 2.48 47.35 C2.69 74.81 2.69 74.81 7.25 101.81 C7.47 102.68 7.68 103.55 7.91 104.45 C9.93 112.27 12.55 119.68 16 127 C16.31 127.67 16.63 128.34 16.95 129.03 C22.08 139.75 28.41 149.13 35.77 158.44 C37.21 160.27 38.61 162.13 40 164 C38.15 164.65 36.29 165.3 34.44 165.94 C32.89 166.48 32.89 166.48 31.31 167.03 C24.21 169.12 17.33 169.13 9.98 169.14 C7.8 169.16 5.62 169.18 3.44 169.2 C0.05 169.23 -3.35 169.25 -6.74 169.25 C-29.42 169.27 -47.63 172.1 -64.81 188.12 C-75.22 199.1 -81.69 213.81 -85.88 228.19 C-92.44 250.33 -102.79 271.83 -123.74 283.37 C-133.67 288.58 -142.79 291.18 -154.06 291.05 C-154.73 291.04 -155.39 291.04 -156.08 291.03 C-157.52 291.02 -158.96 291 -160.4 290.98 C-162.69 290.96 -164.99 290.94 -167.28 290.92 C-173.8 290.88 -180.32 290.83 -186.84 290.75 C-190.85 290.7 -194.85 290.68 -198.85 290.66 C-200.36 290.65 -201.87 290.63 -203.37 290.61 C-216.93 290.39 -230.21 292.2 -242.31 298.75 C-243.3 299.27 -243.3 299.27 -244.3 299.79 C-269.19 313.13 -280.74 334.86 -291.5 359.8 C-291.94 360.8 -292.37 361.81 -292.82 362.85 C-293.66 364.8 -294.5 366.76 -295.32 368.72 C-302.73 386.08 -313.06 401.37 -329 412 C-329.99 412 -330.98 412 -332 412 C-332 340.72 -332 269.44 -332 196 C-326.72 195.01 -321.44 194.02 -316 193 C-292.86 185.05 -278.24 168.03 -267.69 146.62 C-266.45 144.09 -265.22 141.54 -264 139 C-255.97 122.89 -244.19 111.05 -227.09 104.96 C-214.58 101.35 -202.21 103.01 -189.5 104.5 C-170.06 106.78 -149.96 108.29 -133.38 95.78 C-125.24 89.2 -119.07 81.59 -113.29 72.93 C-105.91 61.89 -98.41 51.42 -89 42 C-88.2 41.19 -87.4 40.38 -86.58 39.55 C-68.06 21.78 -41.99 14.76 -16.88 14.88 C-15.59 14.87 -15.59 14.87 -14.29 14.86 C-13.45 14.86 -12.61 14.87 -11.74 14.87 C-11 14.87 -10.25 14.87 -9.49 14.87 C-6.31 15.04 -3.15 15.55 0 16 C0 10.72 0 5.44 0 0 Z " fill="#363635" transform="translate(332,460)"/>
<path d="M0 0 C128.37 0 256.74 0 389 0 C385.24 18.82 379.28 33.74 363.7 45.78 C351.05 54.13 336.12 56.1 321.31 56.18 C319.46 56.2 317.61 56.22 315.75 56.25 C312.89 56.28 310.02 56.31 307.16 56.33 C286.3 56.44 268.01 58.69 252.22 73.65 C243.41 82.97 239.9 94.08 237.5 106.44 C233.1 129.05 233.1 129.05 224 137 C216.97 141.68 207.52 140.86 199.44 139.6 C187.76 136.48 176.46 130.31 165.75 124.81 C150.98 117.14 150.98 117.14 134.74 116.41 C129.38 118.28 126.65 120.99 124 126 C119.43 139.71 127.52 157.08 132 170 C135.06 178.88 137.85 187.77 140.3 196.84 C141.14 199.93 141.99 202.98 143.04 206.02 C147.09 218.63 149.35 233.01 144.35 245.54 C141.94 249.93 138.44 252.78 134 255 C131.98 255.12 129.96 255.18 127.94 255.19 C126.85 255.2 125.77 255.22 124.65 255.23 C116.93 254.74 110.62 252.73 103.88 249 C103.15 248.61 102.42 248.21 101.67 247.8 C93.05 243.05 85 237.51 76.95 231.86 C53.57 215.49 28.95 198.62 0 195 C0 130.65 0 66.3 0 0 Z " fill="#F0F0F0" transform="translate(0,0)"/>
<path d="M0 0 C1.45 0.62 2.9 1.25 4.34 1.91 C5.13 2.25 5.93 2.59 6.74 2.94 C9.31 4.06 11.86 5.2 14.42 6.33 C16.2 7.11 17.98 7.89 19.76 8.66 C23.36 10.22 26.94 11.8 30.53 13.38 C37.22 16.33 43.94 19.24 50.65 22.14 C52.49 22.93 54.32 23.73 56.15 24.53 C60.83 26.58 65.51 28.6 70.27 30.45 C78.7 33.79 86.91 37.66 95.17 41.4 C97.76 42.57 100.35 43.74 102.94 44.91 C104.65 45.68 106.36 46.45 108.07 47.23 C112.3 49.14 116.54 51.03 120.79 52.88 C121.61 53.24 122.43 53.6 123.27 53.97 C124.8 54.64 126.34 55.3 127.88 55.96 C135.63 59.35 141.62 63.66 145.04 71.62 C147.02 78.04 145.47 83.08 143.23 89.15 C138.35 96.96 129.69 100.52 121.73 104.52 C120.51 105.15 119.28 105.77 118.06 106.4 C111.29 109.85 104.49 113.24 97.68 116.6 C90.52 120.16 83.54 124.04 76.52 127.86 C70.23 131.29 63.9 134.6 57.47 137.76 C52.32 140.3 47.24 142.96 42.17 145.65 C34.43 149.74 26.66 153.75 18.8 157.6 C17.28 158.35 15.76 159.1 14.24 159.86 C11.7 161.14 9.16 162.39 6.61 163.65 C5.43 164.24 5.43 164.24 4.23 164.85 C-0.47 167.13 -4 168.25 -9.33 167.65 C-12.53 165.54 -13.21 164.07 -14.27 160.4 C-14.4 152.45 -9.79 145.52 -6.02 138.77 C-4.95 136.84 -3.89 134.91 -2.82 132.97 C-2.26 131.96 -1.69 130.94 -1.11 129.89 C2.06 124.12 5.17 118.32 8.29 112.52 C8.9 111.4 9.5 110.28 10.12 109.13 C12.4 104.89 12.4 104.89 14.67 100.65 C15.05 100 15.42 99.36 15.81 98.69 C18.14 93.13 17.71 86.21 15.48 80.72 C13.84 77.9 12.06 75.24 10.17 72.58 C9.57 71.69 8.97 70.8 8.35 69.89 C7.11 68.06 5.87 66.25 4.61 64.44 C1.22 59.56 -2.05 54.6 -5.33 49.65 C-6.05 48.57 -6.77 47.49 -7.51 46.37 C-9.36 43.59 -11.2 40.81 -13.03 38.02 C-13.78 36.88 -14.53 35.75 -15.28 34.62 C-26.49 17.76 -26.49 17.76 -25.33 10.65 C-20.34 -0.35 -11.43 -4.22 0 0 Z " fill="#E2E2E2" transform="translate(531.3310546875,417.354248046875)"/>
<path d="M0 0 C3.48 1.85 6.14 4.31 9 7 C10.22 8.03 10.22 8.03 11.46 9.08 C21.87 17.98 29.35 28.4 36.01 40.24 C36.87 41.77 37.76 43.3 38.65 44.82 C42.27 51.41 44.54 58.34 46.75 65.5 C47.04 66.45 47.34 67.4 47.64 68.38 C50.95 79.52 52.39 90.32 52.38 101.94 C52.37 103.11 52.37 104.28 52.37 105.48 C52.22 116.34 50.57 126.48 48 137 C47.73 138.23 47.47 139.47 47.2 140.74 C40.78 167.23 20.55 193.96 -2 209 C-4.96 209.34 -4.96 209.34 -8.38 209.38 C-9.5 209.4 -10.62 209.43 -11.77 209.46 C-16.47 208.79 -18.76 206.41 -21.81 202.94 C-23.69 198.3 -23.74 193.92 -23 189 C-20.41 184.45 -17.06 182.3 -12.81 179.31 C1.89 168.85 10.8 153.64 17 137 C17.38 136.04 17.76 135.08 18.15 134.09 C25.48 115.1 24.98 86.76 17 68 C16.71 67.32 16.42 66.63 16.12 65.93 C9.27 50.25 -0.41 35.73 -14.5 25.69 C-17.64 23.41 -19.26 21.96 -20 18 C-20.55 13.24 -20.49 9.97 -18.31 5.62 C-13.1 -0.3 -7.71 -1.46 0 0 Z " fill="#F2F1F2" transform="translate(724,397)"/>
<path d="M0 0 C3.12 1.5 3.12 1.5 6 4 C6.71 4.58 7.42 5.17 8.15 5.77 C13.21 10.03 17.36 14.48 21 20 C21.57 20.84 21.57 20.84 22.15 21.69 C25.49 26.77 27.73 31.91 29.75 37.62 C30.05 38.44 30.36 39.26 30.67 40.11 C37.84 59.93 34.52 81.62 25.91 100.37 C20.26 111.32 10.19 125.94 -2 130 C-6.07 130.49 -10.2 130.95 -13.92 128.99 C-17.12 126.35 -19.8 123.69 -20.3 119.48 C-20.34 109.64 -20.34 109.64 -17 106 C-14.78 104.26 -12.53 102.57 -10.28 100.88 C-2.84 94.75 4.11 83.17 5.31 73.54 C5.7 58 5.52 44.49 -5.03 32.02 C-7.88 29.1 -10.96 26.49 -14.04 23.84 C-17.69 20.41 -18.83 17.39 -19.44 12.5 C-18.82 7.6 -16.82 4.66 -13.2 1.36 C-9.12 -1.16 -4.61 -0.59 0 0 Z " fill="#F2F2F2" transform="translate(695,435)"/>
<path d="M0 0 C1.41 0 1.41 0 2.85 0.01 C5.81 0.02 8.78 0.04 11.74 0.07 C13.77 0.08 15.79 0.09 17.82 0.1 C22.75 0.12 27.68 0.15 32.62 0.2 C32.29 0.86 31.96 1.52 31.62 2.2 C30.14 2.23 30.14 2.23 28.64 2.26 C24.92 2.33 21.21 2.42 17.49 2.51 C15.89 2.55 14.3 2.59 12.7 2.62 C3.26 2.81 -5.93 3.34 -15.26 4.78 C-18.02 5.15 -20.61 5.28 -23.38 5.2 C-18.02 -1.1 -7.62 -0.09 0 0 Z " fill="#7B7A7A" transform="translate(298.3828125,55.8046875)"/>
<path d="M0 0 C-3 2 -3 2 -5.02 2.83 C-11.01 5.33 -15.32 8.8 -19.88 13.31 C-20.42 13.85 -20.97 14.38 -21.53 14.93 C-25.42 18.92 -27.71 22.92 -30 28 C-31.15 24.29 -31.15 24.29 -29.81 21.67 C-22.79 12.05 -13.06 -0.34 0 0 Z " fill="#6A6969" transform="translate(274,61)"/>
<path d="M0 0 C-1.29 1.01 -2.58 2 -3.88 3 C-4.59 3.56 -5.31 4.11 -6.05 4.69 C-8 6 -8 6 -10 6 C-10 5.34 -10 4.68 -10 4 C-11.07 4.44 -11.07 4.44 -12.15 4.89 C-14.93 5.97 -17.69 6.87 -20.56 7.69 C-21.49 7.96 -22.42 8.23 -23.38 8.51 C-26.03 9 -27.49 8.88 -30 8 C-26.73 6.15 -23.61 5.38 -19.94 4.62 C-14.44 3.42 -9.35 1.78 -4.14 -0.33 C-2 -1 -2 -1 0 0 Z " fill="#AAAAAA" transform="translate(553,591)"/>
<path d="M0 0 C-1.66 2.01 -2.62 2.91 -5.2 3.51 C-6.02 3.57 -6.84 3.63 -7.69 3.69 C-9 3.78 -9 3.78 -10.35 3.88 C-13.91 4.04 -17.44 4.07 -21 4 C-21 3.34 -21 2.68 -21 2 C-18.44 1.66 -15.88 1.33 -13.31 1 C-12.59 0.9 -11.87 0.81 -11.13 0.71 C-7.39 0.23 -3.78 -0.12 0 0 Z " fill="#B4B4B4" transform="translate(522,599)"/>
<path d="M0 0 C6.93 0.99 13.86 1.98 21 3 C21 3.33 21 3.66 21 4 C18.71 4.03 16.42 4.05 14.12 4.06 C12.85 4.07 11.57 4.09 10.26 4.1 C7 4 7 4 5 3 C3.34 2.64 1.67 2.31 0 2 C0 1.34 0 0.68 0 0 Z " fill="#B8B7B7" transform="translate(476,598)"/>
<path d="M0 0 C0.66 0 1.32 0 2 0 C1.31 3.57 -0.15 6.44 -1.88 9.62 C-2.39 10.59 -2.9 11.55 -3.43 12.54 C-5 15 -5 15 -8 17 C-6.51 13.1 -4.76 9.41 -2.88 5.69 C-2.07 4.08 -2.07 4.08 -1.24 2.45 C-0.63 1.24 -0.63 1.24 0 0 Z " fill="#747474" transform="translate(384,17)"/>
<path d="M0 0 C1.14 3.42 0.84 5.06 0.19 8.56 C0.02 9.53 -0.16 10.5 -0.33 11.5 C-1 14 -1 14 -3 16 C-2.89 13.9 -2.76 11.79 -2.62 9.69 C-2.56 8.52 -2.49 7.34 -2.41 6.14 C-2 3 -2 3 0 0 Z " fill="#797979" transform="translate(238,105)"/>
<path d="M0 0 C1.21 3.5 0.78 5.69 -0.31 9.19 C-0.58 10.07 -0.84 10.95 -1.11 11.86 C-2 14 -2 14 -4 15 C-3.63 9.34 -2.94 4.99 0 0 Z " fill="#757575" transform="translate(242,89)"/>
<path d="M0 0 C-5.29 4.06 -5.29 4.06 -8.88 3.75 C-9.58 3.5 -10.28 3.25 -11 3 C-3.71 -1.86 -3.71 -1.86 0 0 Z " fill="#A09F9F" transform="translate(553,591)"/>
</svg>
